<mxfile host="Electron" agent="Mozilla/5.0 (X11; Linux x86_64) AppleWebKit/537.36 (KHTML, like Gecko) draw.io/24.7.17 Chrome/128.0.6613.36 Electron/32.0.1 Safari/537.36" version="24.7.17">
  <diagram name="Page-1" id="XKuFGBFuqH11n4ffUUHy">
    <mxGraphModel dx="2555" dy="1755" grid="0" gridSize="10" guides="1" tooltips="1" connect="1" arrows="1" fold="1" page="1" pageScale="1" pageWidth="1169" pageHeight="827" math="0" shadow="0">
      <root>
        <mxCell id="0" />
        <mxCell id="1" parent="0" />
        <mxCell id="M98I_Dfe5uiVffybFT3l-1" value="Atendente" style="shape=umlActor;verticalLabelPosition=bottom;verticalAlign=top;html=1;" parent="1" vertex="1">
          <mxGeometry x="-1103" y="-445" width="30" height="60" as="geometry" />
        </mxCell>
        <mxCell id="M98I_Dfe5uiVffybFT3l-3" value="UsuÃ¡rio&lt;div&gt;&lt;br&gt;&lt;/div&gt;" style="shape=umlActor;verticalLabelPosition=bottom;verticalAlign=top;html=1;" parent="1" vertex="1">
          <mxGeometry x="-1009" y="-491" width="30" height="60" as="geometry" />
        </mxCell>
        <mxCell id="M98I_Dfe5uiVffybFT3l-4" value="Administrador" style="shape=umlActor;verticalLabelPosition=bottom;verticalAlign=top;html=1;" parent="1" vertex="1">
          <mxGeometry x="-1103" y="-537" width="30" height="60" as="geometry" />
        </mxCell>
        <mxCell id="M98I_Dfe5uiVffybFT3l-5" value="&lt;div&gt;SGBD&lt;/div&gt;" style="shape=umlActor;verticalLabelPosition=bottom;verticalAlign=top;html=1;" parent="1" vertex="1">
          <mxGeometry x="-768" y="-506.5" width="53" height="91" as="geometry" />
        </mxCell>
        <mxCell id="M98I_Dfe5uiVffybFT3l-7" value="Login" style="ellipse;whiteSpace=wrap;html=1;" parent="1" vertex="1">
          <mxGeometry x="-920" y="-489" width="93" height="56" as="geometry" />
        </mxCell>
        <mxCell id="M98I_Dfe5uiVffybFT3l-82" value="" style="endArrow=open;html=1;rounded=0;fontSize=12;startSize=8;endSize=8;endFill=0;" parent="1" source="M98I_Dfe5uiVffybFT3l-7" target="M98I_Dfe5uiVffybFT3l-5" edge="1">
          <mxGeometry relative="1" as="geometry">
            <mxPoint x="-677" y="-760" as="sourcePoint" />
            <mxPoint x="-758" y="-458" as="targetPoint" />
          </mxGeometry>
        </mxCell>
        <mxCell id="M98I_Dfe5uiVffybFT3l-83" value="" style="endArrow=open;html=1;rounded=0;fontSize=12;startSize=8;endSize=8;endFill=0;curved=1;" parent="1" source="M98I_Dfe5uiVffybFT3l-3" target="M98I_Dfe5uiVffybFT3l-7" edge="1">
          <mxGeometry relative="1" as="geometry">
            <mxPoint x="-1366" y="-647" as="sourcePoint" />
            <mxPoint x="-901" y="-673" as="targetPoint" />
          </mxGeometry>
        </mxCell>
        <mxCell id="M98I_Dfe5uiVffybFT3l-84" value="" style="endArrow=open;html=1;rounded=0;fontSize=12;startSize=8;endSize=8;endFill=0;curved=1;" parent="1" source="M98I_Dfe5uiVffybFT3l-1" target="M98I_Dfe5uiVffybFT3l-3" edge="1">
          <mxGeometry relative="1" as="geometry">
            <mxPoint x="-1280" y="-304" as="sourcePoint" />
            <mxPoint x="-980" y="-423" as="targetPoint" />
          </mxGeometry>
        </mxCell>
        <mxCell id="M98I_Dfe5uiVffybFT3l-85" value="" style="endArrow=open;html=1;rounded=0;fontSize=12;startSize=8;endSize=8;endFill=0;curved=1;" parent="1" source="M98I_Dfe5uiVffybFT3l-4" target="M98I_Dfe5uiVffybFT3l-3" edge="1">
          <mxGeometry relative="1" as="geometry">
            <mxPoint x="-1235" y="-503" as="sourcePoint" />
            <mxPoint x="-1286" y="-328" as="targetPoint" />
          </mxGeometry>
        </mxCell>
      </root>
    </mxGraphModel>
  </diagram>
</mxfile>
